<svg xmlns="http://www.w3.org/2000/svg" xmlns:xlink="http://www.w3.org/1999/xlink" xmlns:s="https://github.com/nturley/netlistsvg" width="727" height="611.5"><style>svg {
  stroke:#000;
  fill:none;
}
text {
  fill:#000;
  stroke:none;
  font-size:10px;
  font-weight: bold;
  font-family: "Courier New", monospace;
}
line {
    stroke-linecap: round;
}
.nodelabel {
  text-anchor: middle;
}
.inputPortLabel {
  text-anchor: end;
}
.splitjoinBody {
  fill:#000;
}</style><g s:type="buf" transform="translate(95,22.5)" s:width="30" s:height="20" id="cell_pwr_reg"><s:alias val="$_BUF_"/><path d="M0,0 L0,20 L20,10 Z" class="cell_pwr_reg"/><g s:x="0" s:y="10" s:pid="A"/><g s:x="20" s:y="10" s:pid="Y"/></g><g s:type="generic" transform="translate(191,22)" s:width="30" s:height="40" id="cell_bcm2836"><text x="15" y="-4" class="nodelabel cell_bcm2836" s:attribute="ref">bcm2836</text><rect width="30" height="100" s:generic="body" class="cell_bcm2836"/><g transform="translate(0,10)" s:x="0" s:y="10" s:pid="in0" id="port_bcm2836~VCC"><text x="-3" y="-4" class="inputPortLabel cell_bcm2836">VCC</text></g><g transform="translate(0,30)" s:x="0" s:y="10" s:pid="in0" id="port_bcm2836~SDIO"><text x="-3" y="-4" class="inputPortLabel cell_bcm2836">SDIO</text></g><g transform="translate(0,50)" s:x="0" s:y="10" s:pid="in0" id="port_bcm2836~CAM"><text x="-3" y="-4" class="inputPortLabel cell_bcm2836">CAM</text></g><g transform="translate(30,10)" s:x="30" s:y="10" s:pid="out0" id="port_bcm2836~ARM_OUT"><text x="5" y="-4" style="fill:#000; stroke:none" class="cell_bcm2836">ARM_OUT</text></g><g transform="translate(30,30)" s:x="30" s:y="10" s:pid="out0" id="port_bcm2836~GPU_OUT"><text x="5" y="-4" style="fill:#000; stroke:none" class="cell_bcm2836">GPU_OUT</text></g><g transform="translate(30,50)" s:x="30" s:y="10" s:pid="out0" id="port_bcm2836~PERIPH"><text x="5" y="-4" style="fill:#000; stroke:none" class="cell_bcm2836">PERIPH</text></g><g transform="translate(30,70)" s:x="30" s:y="10" s:pid="out0" id="port_bcm2836~GPIO_BUS"><text x="5" y="-4" style="fill:#000; stroke:none" class="cell_bcm2836">GPIO_BUS</text></g><g transform="translate(30,90)" s:x="30" s:y="10" s:pid="out0" id="port_bcm2836~DISP"><text x="5" y="-4" style="fill:#000; stroke:none" class="cell_bcm2836">DISP</text></g></g><g s:type="generic" transform="translate(685,22)" s:width="30" s:height="40" id="cell_sdram"><text x="15" y="-4" class="nodelabel cell_sdram" s:attribute="ref">sdram</text><rect width="30" height="40" s:generic="body" class="cell_sdram"/><g transform="translate(0,10)" s:x="0" s:y="10" s:pid="in0" id="port_sdram~DATA"><text x="-3" y="-4" class="inputPortLabel cell_sdram">DATA</text></g><g transform="translate(0,30)" s:x="0" s:y="10" s:pid="in0" id="port_sdram~CTRL"><text x="-3" y="-4" class="inputPortLabel cell_sdram">CTRL</text></g></g><g s:type="buf" transform="translate(595,110)" s:width="30" s:height="20" id="cell_hdmi_encoder"><s:alias val="$_BUF_"/><path d="M0,0 L0,20 L20,10 Z" class="cell_hdmi_encoder"/><g s:x="0" s:y="10" s:pid="A"/><g s:x="20" s:y="10" s:pid="Y"/></g><g s:type="generic" transform="translate(480,264.5)" s:width="30" s:height="40" id="cell_usb_hub"><text x="15" y="-4" class="nodelabel cell_usb_hub" s:attribute="ref">usb_hub</text><rect width="30" height="100" s:generic="body" class="cell_usb_hub"/><g transform="translate(0,10)" s:x="0" s:y="10" s:pid="in0" id="port_usb_hub~UPSTREAM"><text x="-3" y="-4" class="inputPortLabel cell_usb_hub">UPSTREAM</text></g><g transform="translate(30,10)" s:x="30" s:y="10" s:pid="out0" id="port_usb_hub~PORT0"><text x="5" y="-4" style="fill:#000; stroke:none" class="cell_usb_hub">PORT0</text></g><g transform="translate(30,30)" s:x="30" s:y="10" s:pid="out0" id="port_usb_hub~PORT1"><text x="5" y="-4" style="fill:#000; stroke:none" class="cell_usb_hub">PORT1</text></g><g transform="translate(30,50)" s:x="30" s:y="10" s:pid="out0" id="port_usb_hub~PORT2"><text x="5" y="-4" style="fill:#000; stroke:none" class="cell_usb_hub">PORT2</text></g><g transform="translate(30,70)" s:x="30" s:y="10" s:pid="out0" id="port_usb_hub~PORT3"><text x="5" y="-4" style="fill:#000; stroke:none" class="cell_usb_hub">PORT3</text></g><g transform="translate(30,90)" s:x="30" s:y="10" s:pid="out0" id="port_usb_hub~ETH_PORT"><text x="5" y="-4" style="fill:#000; stroke:none" class="cell_usb_hub">ETH_PORT</text></g></g><g s:type="buf" transform="translate(595,435)" s:width="30" s:height="20" id="cell_lan9514"><s:alias val="$_BUF_"/><path d="M0,0 L0,20 L20,10 Z" class="cell_lan9514"/><g s:x="0" s:y="10" s:pid="A"/><g s:x="20" s:y="10" s:pid="Y"/></g><g s:type="generic" transform="translate(330,489.5)" s:width="30" s:height="40" id="cell_gpio_header"><text x="15" y="-4" class="nodelabel cell_gpio_header" s:attribute="ref">gpio_header</text><rect width="30" height="80" s:generic="body" class="cell_gpio_header"/><g transform="translate(0,10)" s:x="0" s:y="10" s:pid="in0" id="port_gpio_header~BUS"><text x="-3" y="-4" class="inputPortLabel cell_gpio_header">BUS</text></g><g transform="translate(30,10)" s:x="30" s:y="10" s:pid="out0" id="port_gpio_header~P0"><text x="5" y="-4" style="fill:#000; stroke:none" class="cell_gpio_header">P0</text></g><g transform="translate(30,30)" s:x="30" s:y="10" s:pid="out0" id="port_gpio_header~P1"><text x="5" y="-4" style="fill:#000; stroke:none" class="cell_gpio_header">P1</text></g><g transform="translate(30,50)" s:x="30" s:y="10" s:pid="out0" id="port_gpio_header~P2"><text x="5" y="-4" style="fill:#000; stroke:none" class="cell_gpio_header">P2</text></g><g transform="translate(30,70)" s:x="30" s:y="10" s:pid="out0" id="port_gpio_header~P3"><text x="5" y="-4" style="fill:#000; stroke:none" class="cell_gpio_header">P3</text></g></g><g s:type="inputExt" transform="translate(12,22.5)" s:width="30" s:height="20" id="cell_USB_PWR"><text x="15" y="-4" class="nodelabel cell_USB_PWR" s:attribute="ref">USB_PWR</text><s:alias val="$_inputExt_"/><path d="M0,0 L0,20 L15,20 L30,10 L15,0 Z" class="cell_USB_PWR"/><g s:x="30" s:y="10" s:pid="Y"/></g><g s:type="outputExt" transform="translate(667,110)" s:width="30" s:height="20" id="cell_HDMI_OUT"><text x="15" y="-4" class="nodelabel cell_HDMI_OUT" s:attribute="ref">HDMI_OUT</text><s:alias val="$_outputExt_"/><path d="M30,0 L30,20 L15,20 L0,10 L15,0 Z" class="cell_HDMI_OUT"/><g s:x="0" s:y="10" s:pid="A"/></g><g s:type="outputExt" transform="translate(685,175)" s:width="30" s:height="20" id="cell_USB0"><text x="15" y="-4" class="nodelabel cell_USB0" s:attribute="ref">USB0</text><s:alias val="$_outputExt_"/><path d="M30,0 L30,20 L15,20 L0,10 L15,0 Z" class="cell_USB0"/><g s:x="0" s:y="10" s:pid="A"/></g><g s:type="outputExt" transform="translate(685,240)" s:width="30" s:height="20" id="cell_USB1"><text x="15" y="-4" class="nodelabel cell_USB1" s:attribute="ref">USB1</text><s:alias val="$_outputExt_"/><path d="M30,0 L30,20 L15,20 L0,10 L15,0 Z" class="cell_USB1"/><g s:x="0" s:y="10" s:pid="A"/></g><g s:type="outputExt" transform="translate(685,305)" s:width="30" s:height="20" id="cell_USB2"><text x="15" y="-4" class="nodelabel cell_USB2" s:attribute="ref">USB2</text><s:alias val="$_outputExt_"/><path d="M30,0 L30,20 L15,20 L0,10 L15,0 Z" class="cell_USB2"/><g s:x="0" s:y="10" s:pid="A"/></g><g s:type="outputExt" transform="translate(685,370)" s:width="30" s:height="20" id="cell_USB3"><text x="15" y="-4" class="nodelabel cell_USB3" s:attribute="ref">USB3</text><s:alias val="$_outputExt_"/><path d="M30,0 L30,20 L15,20 L0,10 L15,0 Z" class="cell_USB3"/><g s:x="0" s:y="10" s:pid="A"/></g><g s:type="outputExt" transform="translate(685,435)" s:width="30" s:height="20" id="cell_ETH"><text x="15" y="-4" class="nodelabel cell_ETH" s:attribute="ref">ETH</text><s:alias val="$_outputExt_"/><path d="M30,0 L30,20 L15,20 L0,10 L15,0 Z" class="cell_ETH"/><g s:x="0" s:y="10" s:pid="A"/></g><g s:type="outputExt" transform="translate(685,500)" s:width="30" s:height="20" id="cell_GPIO"><text x="15" y="-4" class="nodelabel cell_GPIO" s:attribute="ref">GPIO</text><s:alias val="$_outputExt_"/><path d="M30,0 L30,20 L15,20 L0,10 L15,0 Z" class="cell_GPIO"/><g s:x="0" s:y="10" s:pid="A"/></g><g s:type="inputExt" transform="translate(89,152.5)" s:width="30" s:height="20" id="cell_CSI"><text x="15" y="-4" class="nodelabel cell_CSI" s:attribute="ref">CSI</text><s:alias val="$_inputExt_"/><path d="M0,0 L0,20 L15,20 L30,10 L15,0 Z" class="cell_CSI"/><g s:x="30" s:y="10" s:pid="Y"/></g><g s:type="outputExt" transform="translate(685,579.5)" s:width="30" s:height="20" id="cell_DSI"><text x="15" y="-4" class="nodelabel cell_DSI" s:attribute="ref">DSI</text><s:alias val="$_outputExt_"/><path d="M30,0 L30,20 L15,20 L0,10 L15,0 Z" class="cell_DSI"/><g s:x="0" s:y="10" s:pid="A"/></g><g s:type="inputExt" transform="translate(89,87.5)" s:width="30" s:height="20" id="cell_SD_CARD"><text x="15" y="-4" class="nodelabel cell_SD_CARD" s:attribute="ref">SD_CARD</text><s:alias val="$_inputExt_"/><path d="M0,0 L0,20 L15,20 L30,10 L15,0 Z" class="cell_SD_CARD"/><g s:x="30" s:y="10" s:pid="Y"/></g><g s:type="join" transform="translate(486.75,489.5)" s:width="4" s:height="40" id="cell_$join$,50,51,52,53,"><rect width="5" height="80" class="splitjoinBody" s:generic="body"/><s:alias val="$_join_"/><g s:x="5" s:y="20" s:pid="out"/><g transform="translate(0,10)" s:x="0" s:y="10" s:pid="in0"><text x="-3" y="-4" class="inputPortLabel">0</text></g><g transform="translate(0,30)" s:x="0" s:y="10" s:pid="in0"><text x="-3" y="-4" class="inputPortLabel">1</text></g><g transform="translate(0,50)" s:x="0" s:y="10" s:pid="in0"><text x="-3" y="-4" class="inputPortLabel">2</text></g><g transform="translate(0,70)" s:x="0" s:y="10" s:pid="in0"><text x="-3" y="-4" class="inputPortLabel">3</text></g></g><line x1="42" x2="95" y1="32.5" y2="32.5" class="net_2 width_1" style="stroke-width: 1"/><line x1="115" x2="191" y1="32.5" y2="32.5" class="net_3 width_1" style="stroke-width: 1"/><line x1="119" x2="141" y1="97.5" y2="97.5" class="net_70 width_1" style="stroke-width: 1"/><line x1="141" x2="141" y1="97.5" y2="52.5" class="net_70 width_1" style="stroke-width: 1"/><line x1="141" x2="191" y1="52.5" y2="52.5" class="net_70 width_1" style="stroke-width: 1"/><line x1="119" x2="151" y1="162.5" y2="162.5" class="net_60 width_1" style="stroke-width: 1"/><line x1="151" x2="151" y1="162.5" y2="72.5" class="net_60 width_1" style="stroke-width: 1"/><line x1="151" x2="191" y1="72.5" y2="72.5" class="net_60 width_1" style="stroke-width: 1"/><line x1="222" x2="685" y1="32.5" y2="32.5" class="net_10 width_1" style="stroke-width: 1"/><line x1="222" x2="685" y1="52.5" y2="52.5" class="net_11 width_1" style="stroke-width: 1"/><line x1="222" x2="570" y1="52.5" y2="52.5" class="net_11 width_1" style="stroke-width: 1"/><line x1="570" x2="570" y1="52.5" y2="120" class="net_11 width_1" style="stroke-width: 1"/><circle cx="570" cy="52.5" r="2" style="fill:#000" class="net_11 width_1"/><line x1="570" x2="595" y1="120" y2="120" class="net_11 width_1" style="stroke-width: 1"/><line x1="222" x2="301" y1="72.5" y2="72.5" class="net_12 width_1" style="stroke-width: 1"/><line x1="301" x2="301" y1="72.5" y2="275" class="net_12 width_1" style="stroke-width: 1"/><line x1="301" x2="480" y1="275" y2="275" class="net_12 width_1" style="stroke-width: 1"/><line x1="511" x2="570" y1="355" y2="355" class="net_14 width_1" style="stroke-width: 1"/><line x1="570" x2="570" y1="355" y2="445" class="net_14 width_1" style="stroke-width: 1"/><line x1="570" x2="595" y1="445" y2="445" class="net_14 width_1" style="stroke-width: 1"/><line x1="222" x2="291" y1="92.5" y2="92.5" class="net_13 width_1" style="stroke-width: 1"/><line x1="291" x2="291" y1="92.5" y2="500" class="net_13 width_1" style="stroke-width: 1"/><line x1="291" x2="330" y1="500" y2="500" class="net_13 width_1" style="stroke-width: 1"/><line x1="615" x2="667" y1="120" y2="120" class="net_20 width_1" style="stroke-width: 1"/><line x1="511" x2="570" y1="275" y2="275" class="net_30 width_1" style="stroke-width: 1"/><line x1="570" x2="570" y1="275" y2="185" class="net_30 width_1" style="stroke-width: 1"/><line x1="570" x2="685" y1="185" y2="185" class="net_30 width_1" style="stroke-width: 1"/><line x1="511" x2="580" y1="295" y2="295" class="net_31 width_1" style="stroke-width: 1"/><line x1="580" x2="580" y1="295" y2="250" class="net_31 width_1" style="stroke-width: 1"/><line x1="580" x2="685" y1="250" y2="250" class="net_31 width_1" style="stroke-width: 1"/><line x1="511" x2="685" y1="315" y2="315" class="net_32 width_1" style="stroke-width: 1"/><line x1="511" x2="580" y1="335" y2="335" class="net_33 width_1" style="stroke-width: 1"/><line x1="580" x2="580" y1="335" y2="380" class="net_33 width_1" style="stroke-width: 1"/><line x1="580" x2="685" y1="380" y2="380" class="net_33 width_1" style="stroke-width: 1"/><line x1="615" x2="685" y1="445" y2="445" class="net_40 width_1" style="stroke-width: 1"/><line x1="492.75" x2="685" y1="510" y2="510" class="net_50,51,52,53 width_4" style="stroke-width: 2"/><line x1="222" x2="281" y1="112.5" y2="112.5" class="net_61 width_1" style="stroke-width: 1"/><line x1="281" x2="281" y1="112.5" y2="589.5" class="net_61 width_1" style="stroke-width: 1"/><line x1="281" x2="685" y1="589.5" y2="589.5" class="net_61 width_1" style="stroke-width: 1"/><line x1="361" x2="486.75" y1="500" y2="500" class="net_50 width_1" style="stroke-width: 1"/><line x1="361" x2="486.75" y1="520" y2="520" class="net_51 width_1" style="stroke-width: 1"/><line x1="361" x2="486.75" y1="540" y2="540" class="net_52 width_1" style="stroke-width: 1"/><line x1="361" x2="406" y1="560" y2="560" class="net_53 width_1" style="stroke-width: 1"/><line x1="406" x2="406" y1="560" y2="579.5" class="net_53 width_1" style="stroke-width: 1"/><line x1="406" x2="487.25" y1="579.5" y2="579.5" class="net_53 width_1" style="stroke-width: 1"/><line x1="487.25" x2="487.25" y1="579.5" y2="560.5" class="net_53 width_1" style="stroke-width: 1"/><rect x="609" y="505" width="16" height="9" class="net_50,51,52,53 width_4 busLabel_4" style="fill: white; stroke: none"/><text x="608" y="513" class="net_50,51,52,53 width_4 busLabel_4">/4/</text></svg>