<svg xmlns="http://www.w3.org/2000/svg" xmlns:xlink="http://www.w3.org/1999/xlink" xmlns:s="https://github.com/nturley/netlistsvg" width="259.03999999999996" height="290.5"><style>svg {
  stroke: #000;
  fill: none;
}
text {
  fill: #000;
  stroke: none;
  font-size: 10px;
  font-weight: bold;
  font-family: "Courier New", monospace;
}
.nodelabel {
  text-anchor: middle;
}
.inputPortLabel {
  text-anchor: end;
}
.splitjoinBody {
  fill: #000;
}
.symbol {
  stroke-linejoin: round;
  stroke-linecap: round;
  stroke-width: 2;
}
.detail {
  stroke-linejoin: round;
  stroke-linecap: round;
  fill: #000;
}</style><g s:type="vcc" s:width="20" s:height="30" transform="translate(22.039999999999964,73.5)" id="cell_vcc1"><s:alias val="vcc"/><text x="10" y="-4" class="nodelabel cell_vcc1" s:attribute="name"></text><path d="M0,0 H20 L10,15 Z M10,15 V30" class="cell_vcc1"/><g s:x="10" s:y="30" s:pid="A" s:position="bottom"/></g><g s:type="resistor_v" s:width="10" s:height="50" transform="translate(27.039999999999964,143.5)" id="cell_R1"><s:alias val="r_v"/><text x="15" y="15" s:attribute="ref" class="cell_R1">R1</text><text x="15" y="30" s:attribute="value" class="cell_R1">1k</text><path d="M0,10 V40 H10 V10 Z" class="symbol cell_R1"/><path d="M5,0 V10 M5,40 V50" class="connect cell_R1"/><g s:x="5" s:y="0" s:pid="A" s:position="top"/><g s:x="5" s:y="50" s:pid="B" s:position="bottom"/></g><g s:type="resistor_v" s:width="10" s:height="50" transform="translate(84.03999999999996,22)" id="cell_R2"><s:alias val="r_v"/><text x="15" y="15" s:attribute="ref" class="cell_R2">R2</text><text x="15" y="30" s:attribute="value" class="cell_R2">10k</text><path d="M0,10 V40 H10 V10 Z" class="symbol cell_R2"/><path d="M5,0 V10 M5,40 V50" class="connect cell_R2"/><g s:x="5" s:y="0" s:pid="A" s:position="top"/><g s:x="5" s:y="50" s:pid="B" s:position="bottom"/></g><g s:type="capacitor_v" s:width="30" s:height="50" transform="translate(74.03999999999996,191)" id="cell_C1"><s:alias val="c_v"/><text x="25" y="10" s:attribute="ref" class="cell_C1">C1</text><text x="25" y="45" s:attribute="value" class="cell_C1">10uF</text><path d="M0,20 H30 M0,30 H30" class="symbol cell_C1"/><path d="M15,0 V20 M15,30 V50" class="connect cell_C1"/><g s:x="15" s:y="0" s:pid="A" s:position="top"/><g s:x="15" s:y="50" s:pid="B" s:position="bottom"/></g><g s:type="generic" s:width="30" s:height="40" transform="translate(118.03999999999996,103)" id="cell_U1"><text x="15" y="-20" class="nodelabel cell_U1" s:attribute="ref">generic</text><text class="nodelabel cell_U1" x="15" y="-5" s:attribute="value">555</text><rect width="30" height="80" x="0" y="0" s:generic="body" class="cell_U1"/><g transform="translate(0,10)" s:x="0" s:y="10" s:pid="in0" s:position="left" id="port_U1~VCC"><text x="-3" y="-4" class="inputPortLabel cell_U1">VCC</text></g><g transform="translate(0,30)" s:x="0" s:y="10" s:pid="in0" s:position="left" id="port_U1~DIS"><text x="-3" y="-4" class="inputPortLabel cell_U1">DIS</text></g><g transform="translate(0,50)" s:x="0" s:y="10" s:pid="in0" s:position="left" id="port_U1~THR"><text x="-3" y="-4" class="inputPortLabel cell_U1">THR</text></g><g transform="translate(0,70)" s:x="0" s:y="10" s:pid="in0" s:position="left" id="port_U1~TRG"><text x="-3" y="-4" class="inputPortLabel cell_U1">TRG</text></g><g transform="translate(30,10)" s:x="30" s:y="10" s:pid="out0" s:position="right" id="port_U1~OUT"><text x="5" y="-4" class="cell_U1">OUT</text></g><g transform="translate(30,30)" s:x="30" s:y="10" s:pid="out0" s:position="right" id="port_U1~GND"><text x="5" y="-4" class="cell_U1">GND</text></g></g><g s:type="resistor_v" s:width="10" s:height="50" transform="translate(223.03999999999996,123.5)" id="cell_R3"><s:alias val="r_v"/><text x="15" y="15" s:attribute="ref" class="cell_R3">R3</text><text x="15" y="30" s:attribute="value" class="cell_R3">470R</text><path d="M0,10 V40 H10 V10 Z" class="symbol cell_R3"/><path d="M5,0 V10 M5,40 V50" class="connect cell_R3"/><g s:x="5" s:y="0" s:pid="A" s:position="top"/><g s:x="5" s:y="50" s:pid="B" s:position="bottom"/></g><g s:type="diode_led_v" s:width="20" s:height="50" transform="translate(218.03999999999996,178.5)" id="cell_LED1"><s:alias val="d_led_v"/><text x="25" y="25" s:attribute="ref" class="cell_LED1">LED1</text><path d="M0,15 H20 L10,35 Z M0,35 H20" class="symbol cell_LED1"/><path d="M10,0 V15 M10,35 V50" class="connect cell_LED1"/><path d="m-5,20 -7,7" class="detail cell_LED1"/><path d="m-12,24 -3,6 6,-3 z" class="detail cell_LED1"/><path d="m0,25 -7,7" class="detail cell_LED1"/><path d="m-7,29 -3,6 6,-3 z" class="detail cell_LED1"/><g s:x="10" s:y="0" s:pid="+" s:position="top"/><g s:x="10" s:y="50" s:pid="-" s:position="bottom"/></g><g s:type="gnd" s:width="20" s:height="30" transform="translate(168.03999999999996,221)" id="cell_gnd1"><s:alias val="gnd"/><text x="30" y="20" class="nodelabel cell_gnd1" s:attribute="name"></text><path d="M0,0 H20 M3,5 H17 M7,10 H13 M10,0 V-15" class="cell_gnd1"/><g s:x="10" s:y="-15" s:pid="A" s:position="top"/></g><g s:type="gnd" s:width="20" s:height="30" transform="translate(218.03999999999996,248.5)" id="cell_gnd2"><s:alias val="gnd"/><text x="30" y="20" class="nodelabel cell_gnd2" s:attribute="name"></text><path d="M0,0 H20 M3,5 H17 M7,10 H13 M10,0 V-15" class="cell_gnd2"/><g s:x="10" s:y="-15" s:pid="A" s:position="top"/></g><line x1="32.039999999999964" x2="32.039999999999964" y1="103.5" y2="113.5" class="net_1 width_1" style="stroke-width: 1"/><circle cx="32.039999999999964" cy="113.5" r="2" style="fill:#000" class="net_1 width_1"/><line x1="32.039999999999964" x2="118.03999999999996" y1="113.5" y2="113.5" class="net_1 width_1" style="stroke-width: 1"/><line x1="118.03999999999996" x2="32.039999999999964" y1="113.5" y2="113.5" class="net_1 width_1" style="stroke-width: 1"/><circle cx="32.039999999999964" cy="113.5" r="2" style="fill:#000" class="net_1 width_1"/><line x1="32.039999999999964" x2="32.039999999999964" y1="113.5" y2="143.5" class="net_1 width_1" style="stroke-width: 1"/><line x1="32.039999999999964" x2="32.039999999999964" y1="193.5" y2="278.5" class="net_10 width_1" style="stroke-width: 1"/><line x1="32.039999999999964" x2="12.039999999999964" y1="278.5" y2="278.5" class="net_10 width_1" style="stroke-width: 1"/><line x1="12.039999999999964" x2="12.039999999999964" y1="278.5" y2="133.5" class="net_10 width_1" style="stroke-width: 1"/><circle cx="12.039999999999964" cy="133.5" r="2" style="fill:#000" class="net_10 width_1"/><line x1="12.039999999999964" x2="118.03999999999996" y1="133.5" y2="133.5" class="net_10 width_1" style="stroke-width: 1"/><line x1="118.03999999999996" x2="12.039999999999964" y1="133.5" y2="133.5" class="net_10 width_1" style="stroke-width: 1"/><line x1="12.039999999999964" x2="12.039999999999964" y1="133.5" y2="12" class="net_10 width_1" style="stroke-width: 1"/><line x1="12.039999999999964" x2="89.03999999999996" y1="12" y2="12" class="net_10 width_1" style="stroke-width: 1"/><circle cx="12.039999999999964" cy="133.5" r="2" style="fill:#000" class="net_10 width_1"/><line x1="89.03999999999996" x2="89.03999999999996" y1="12" y2="22" class="net_10 width_1" style="stroke-width: 1"/><line x1="89.03999999999996" x2="89.03999999999996" y1="72" y2="153.5" class="net_20 width_1" style="stroke-width: 1"/><circle cx="89.03999999999996" cy="153.5" r="2" style="fill:#000" class="net_20 width_1"/><line x1="89.03999999999996" x2="118.03999999999996" y1="153.5" y2="153.5" class="net_20 width_1" style="stroke-width: 1"/><line x1="89.03999999999996" x2="89.03999999999996" y1="72" y2="103.5" class="net_20 width_1" style="stroke-width: 1"/><line x1="89.03999999999996" x2="79.03999999999996" y1="103.5" y2="103.5" class="net_20 width_1" style="stroke-width: 1"/><line x1="79.03999999999996" x2="79.03999999999996" y1="103.5" y2="173.5" class="net_20 width_1" style="stroke-width: 1"/><circle cx="89.03999999999996" cy="103.5" r="2" style="fill:#000" class="net_20 width_1"/><circle cx="79.03999999999996" cy="173.5" r="2" style="fill:#000" class="net_20 width_1"/><line x1="79.03999999999996" x2="118.03999999999996" y1="173.5" y2="173.5" class="net_20 width_1" style="stroke-width: 1"/><line x1="118.03999999999996" x2="89.03999999999996" y1="153.5" y2="153.5" class="net_20 width_1" style="stroke-width: 1"/><circle cx="89.03999999999996" cy="153.5" r="2" style="fill:#000" class="net_20 width_1"/><line x1="89.03999999999996" x2="89.03999999999996" y1="153.5" y2="191" class="net_20 width_1" style="stroke-width: 1"/><line x1="118.03999999999996" x2="79.03999999999996" y1="173.5" y2="173.5" class="net_20 width_1" style="stroke-width: 1"/><line x1="79.03999999999996" x2="79.03999999999996" y1="173.5" y2="181" class="net_20 width_1" style="stroke-width: 1"/><line x1="79.03999999999996" x2="89.03999999999996" y1="181" y2="181" class="net_20 width_1" style="stroke-width: 1"/><circle cx="89.03999999999996" cy="181" r="2" style="fill:#000" class="net_20 width_1"/><circle cx="79.03999999999996" cy="173.5" r="2" style="fill:#000" class="net_20 width_1"/><line x1="89.03999999999996" x2="89.03999999999996" y1="181" y2="191" class="net_20 width_1" style="stroke-width: 1"/><line x1="149.03999999999996" x2="228.03999999999996" y1="113.5" y2="113.5" class="net_40 width_1" style="stroke-width: 1"/><line x1="228.03999999999996" x2="228.03999999999996" y1="113.5" y2="123.5" class="net_40 width_1" style="stroke-width: 1"/><line x1="228.03999999999996" x2="228.03999999999996" y1="173.5" y2="178.5" class="net_50 width_1" style="stroke-width: 1"/><line x1="89.03999999999996" x2="89.03999999999996" y1="241" y2="278.5" class="net_30 width_1" style="stroke-width: 1"/><line x1="89.03999999999996" x2="158.03999999999996" y1="278.5" y2="278.5" class="net_30 width_1" style="stroke-width: 1"/><line x1="158.03999999999996" x2="158.03999999999996" y1="278.5" y2="196" class="net_30 width_1" style="stroke-width: 1"/><line x1="158.03999999999996" x2="178.03999999999996" y1="196" y2="196" class="net_30 width_1" style="stroke-width: 1"/><line x1="178.03999999999996" x2="178.03999999999996" y1="196" y2="133.5" class="net_30 width_1" style="stroke-width: 1"/><circle cx="178.03999999999996" cy="196" r="2" style="fill:#000" class="net_30 width_1"/><line x1="178.03999999999996" x2="149.03999999999996" y1="133.5" y2="133.5" class="net_30 width_1" style="stroke-width: 1"/><line x1="149.03999999999996" x2="178.03999999999996" y1="133.5" y2="133.5" class="net_30 width_1" style="stroke-width: 1"/><line x1="178.03999999999996" x2="178.03999999999996" y1="133.5" y2="206" class="net_30 width_1" style="stroke-width: 1"/><line x1="228.03999999999996" x2="228.03999999999996" y1="228.5" y2="233.5" class="net_60 width_1" style="stroke-width: 1"/></svg>