<svg xmlns="http://www.w3.org/2000/svg" xmlns:xlink="http://www.w3.org/1999/xlink" xmlns:s="https://github.com/nturley/netlistsvg" width="306" height="307"><style>svg {
  stroke: #000;
  fill: none;
}
text {
  fill: #000;
  stroke: none;
  font-size: 10px;
  font-weight: bold;
  font-family: "Courier New", monospace;
}
.nodelabel {
  text-anchor: middle;
}
.inputPortLabel {
  text-anchor: end;
}
.splitjoinBody {
  fill: #000;
}
.symbol {
  stroke-linejoin: round;
  stroke-linecap: round;
  stroke-width: 2;
}
.detail {
  stroke-linejoin: round;
  stroke-linecap: round;
  fill: #000;
}</style><g s:type="capacitor_h" s:width="50" s:height="30" transform="translate(62,103)" id="cell_C_in"><s:alias val="c_h"/><text x="35" y="5" s:attribute="ref" class="cell_C_in">C_in</text><text x="35" y="30" s:attribute="value" class="cell_C_in">10uF</text><path d="M20,0 V30 M30,0 V30" class="symbol cell_C_in"/><path d="M0,15 H20 M30,15 H50" class="connect cell_C_in"/><g s:x="0" s:y="15" s:pid="A" s:position="left"/><g s:x="50" s:y="15" s:pid="B" s:position="right"/></g><g s:type="resistor_v" s:width="10" s:height="50" transform="translate(117,47)" id="cell_R1"><s:alias val="r_v"/><text x="15" y="15" s:attribute="ref" class="cell_R1">R1</text><text x="15" y="30" s:attribute="value" class="cell_R1">47k</text><path d="M0,10 V40 H10 V10 Z" class="symbol cell_R1"/><path d="M5,0 V10 M5,40 V50" class="connect cell_R1"/><g s:x="5" s:y="0" s:pid="A" s:position="top"/><g s:x="5" s:y="50" s:pid="B" s:position="bottom"/></g><g s:type="resistor_v" s:width="10" s:height="50" transform="translate(117,169)" id="cell_R2"><s:alias val="r_v"/><text x="15" y="15" s:attribute="ref" class="cell_R2">R2</text><text x="15" y="30" s:attribute="value" class="cell_R2">10k</text><path d="M0,10 V40 H10 V10 Z" class="symbol cell_R2"/><path d="M5,0 V10 M5,40 V50" class="connect cell_R2"/><g s:x="5" s:y="0" s:pid="A" s:position="top"/><g s:x="5" s:y="50" s:pid="B" s:position="bottom"/></g><g s:type="transistor_npn" s:width="32" s:height="32" transform="translate(162,143)" id="cell_Q1"><s:alias val="q_npn"/><text x="35" y="20" s:attribute="ref" class="cell_Q1">Q1</text><circle r="16" cx="16" cy="16" class="symbol cell_Q1"/><path d="M0,16 H12 M12,6 V26" class="detail cell_Q1"/><path d="m12,10 11,-8" class="detail cell_Q1"/><path d="m12,21 11,8" class="detail cell_Q1"/><path d="m23,29 -6,-1 3,-5 z" style="fill:#000000" class="cell_Q1"/><g s:x="22" s:y="2" s:pid="C" s:position="top"/><g s:x="0" s:y="16" s:pid="B" s:position="left"/><g s:x="23" s:y="29" s:pid="E" s:position="bottom"/></g><g s:type="resistor_v" s:width="10" s:height="50" transform="translate(179,47)" id="cell_Rc"><s:alias val="r_v"/><text x="15" y="15" s:attribute="ref" class="cell_Rc">Rc</text><text x="15" y="30" s:attribute="value" class="cell_Rc">4.7k</text><path d="M0,10 V40 H10 V10 Z" class="symbol cell_Rc"/><path d="M5,0 V10 M5,40 V50" class="connect cell_Rc"/><g s:x="5" s:y="0" s:pid="A" s:position="top"/><g s:x="5" s:y="50" s:pid="B" s:position="bottom"/></g><g s:type="resistor_v" s:width="10" s:height="50" transform="translate(253,195)" id="cell_Re"><s:alias val="r_v"/><text x="15" y="15" s:attribute="ref" class="cell_Re">Re</text><text x="15" y="30" s:attribute="value" class="cell_Re">1k</text><path d="M0,10 V40 H10 V10 Z" class="symbol cell_Re"/><path d="M5,0 V10 M5,40 V50" class="connect cell_Re"/><g s:x="5" s:y="0" s:pid="A" s:position="top"/><g s:x="5" s:y="50" s:pid="B" s:position="bottom"/></g><g s:type="capacitor_v" s:width="30" s:height="50" transform="translate(170,195)" id="cell_C_bypass"><s:alias val="c_v"/><text x="25" y="10" s:attribute="ref" class="cell_C_bypass">C_bypass</text><text x="25" y="45" s:attribute="value" class="cell_C_bypass">100uF</text><path d="M0,20 H30 M0,30 H30" class="symbol cell_C_bypass"/><path d="M15,0 V20 M15,30 V50" class="connect cell_C_bypass"/><g s:x="15" s:y="0" s:pid="A" s:position="top"/><g s:x="15" s:y="50" s:pid="B" s:position="bottom"/></g><g s:type="capacitor_h" s:width="50" s:height="30" transform="translate(194,103)" id="cell_C_out"><s:alias val="c_h"/><text x="35" y="5" s:attribute="ref" class="cell_C_out">C_out</text><text x="35" y="30" s:attribute="value" class="cell_C_out">10uF</text><path d="M20,0 V30 M30,0 V30" class="symbol cell_C_out"/><path d="M0,15 H20 M30,15 H50" class="connect cell_C_out"/><g s:x="0" s:y="15" s:pid="A" s:position="left"/><g s:x="50" s:y="15" s:pid="B" s:position="right"/></g><g s:type="vcc" s:width="20" s:height="30" transform="translate(112,12)" id="cell_vcc1"><s:alias val="vcc"/><text x="10" y="-4" class="nodelabel cell_vcc1" s:attribute="name"></text><path d="M0,0 H20 L10,15 Z M10,15 V30" class="cell_vcc1"/><g s:x="10" s:y="30" s:pid="A" s:position="bottom"/></g><g s:type="vcc" s:width="20" s:height="30" transform="translate(174,12)" id="cell_vcc2"><s:alias val="vcc"/><text x="10" y="-4" class="nodelabel cell_vcc2" s:attribute="name"></text><path d="M0,0 H20 L10,15 Z M10,15 V30" class="cell_vcc2"/><g s:x="10" s:y="30" s:pid="A" s:position="bottom"/></g><g s:type="gnd" s:width="20" s:height="30" transform="translate(112,239)" id="cell_gnd1"><s:alias val="gnd"/><text x="30" y="20" class="nodelabel cell_gnd1" s:attribute="name"></text><path d="M0,0 H20 M3,5 H17 M7,10 H13 M10,0 V-15" class="cell_gnd1"/><g s:x="10" s:y="-15" s:pid="A" s:position="top"/></g><g s:type="gnd" s:width="20" s:height="30" transform="translate(248,265)" id="cell_gnd2"><s:alias val="gnd"/><text x="30" y="20" class="nodelabel cell_gnd2" s:attribute="name"></text><path d="M0,0 H20 M3,5 H17 M7,10 H13 M10,0 V-15" class="cell_gnd2"/><g s:x="10" s:y="-15" s:pid="A" s:position="top"/></g><g s:type="gnd" s:width="20" s:height="30" transform="translate(175,265)" id="cell_gnd3"><s:alias val="gnd"/><text x="30" y="20" class="nodelabel cell_gnd3" s:attribute="name"></text><path d="M0,0 H20 M3,5 H17 M7,10 H13 M10,0 V-15" class="cell_gnd3"/><g s:x="10" s:y="-15" s:pid="A" s:position="top"/></g><g s:type="inputExt" s:width="30" s:height="20" transform="translate(12,108)" id="cell_VIN"><text x="15" y="-4" class="cell_VIN" s:attribute="ref">VIN</text><s:alias val="$_inputExt_"/><path d="M0,0 V20 H15 L30,10 15,0 Z" class="cell_VIN"/><g s:x="30" s:y="10" s:pid="Y" s:position="right"/></g><g s:type="outputExt" s:width="30" s:height="20" transform="translate(264,108)" id="cell_VOUT"><text x="15" y="-4" class="cell_VOUT" s:attribute="ref">VOUT</text><s:alias val="$_outputExt_"/><path d="M30,0 V20 H15 L0,10 15,0 Z" class="cell_VOUT"/><g s:x="0" s:y="10" s:pid="A" s:position="left"/></g><line x1="122" x2="122" y1="42" y2="47" class="net_80 width_1" style="stroke-width: 1"/><line x1="122" x2="122" y1="97" y2="118" class="net_10 width_1" style="stroke-width: 1"/><circle cx="122" cy="118" r="2" style="fill:#000" class="net_10 width_1"/><line x1="122" x2="112" y1="118" y2="118" class="net_10 width_1" style="stroke-width: 1"/><line x1="122" x2="122" y1="97" y2="108" class="net_10 width_1" style="stroke-width: 1"/><line x1="122" x2="132" y1="108" y2="108" class="net_10 width_1" style="stroke-width: 1"/><line x1="132" x2="132" y1="108" y2="159" class="net_10 width_1" style="stroke-width: 1"/><circle cx="122" cy="108" r="2" style="fill:#000" class="net_10 width_1"/><circle cx="132" cy="159" r="2" style="fill:#000" class="net_10 width_1"/><line x1="132" x2="162" y1="159" y2="159" class="net_10 width_1" style="stroke-width: 1"/><line x1="112" x2="122" y1="118" y2="118" class="net_10 width_1" style="stroke-width: 1"/><circle cx="122" cy="118" r="2" style="fill:#000" class="net_10 width_1"/><line x1="122" x2="122" y1="118" y2="169" class="net_10 width_1" style="stroke-width: 1"/><line x1="162" x2="132" y1="159" y2="159" class="net_10 width_1" style="stroke-width: 1"/><line x1="132" x2="132" y1="159" y2="159" class="net_10 width_1" style="stroke-width: 1"/><line x1="132" x2="122" y1="159" y2="159" class="net_10 width_1" style="stroke-width: 1"/><circle cx="122" cy="159" r="2" style="fill:#000" class="net_10 width_1"/><circle cx="132" cy="159" r="2" style="fill:#000" class="net_10 width_1"/><line x1="122" x2="122" y1="159" y2="169" class="net_10 width_1" style="stroke-width: 1"/><line x1="184" x2="184" y1="97" y2="118" class="net_20 width_1" style="stroke-width: 1"/><circle cx="184" cy="118" r="2" style="fill:#000" class="net_20 width_1"/><line x1="184" x2="194" y1="118" y2="118" class="net_20 width_1" style="stroke-width: 1"/><line x1="194" x2="184" y1="118" y2="118" class="net_20 width_1" style="stroke-width: 1"/><circle cx="184" cy="118" r="2" style="fill:#000" class="net_20 width_1"/><line x1="184" x2="184" y1="118" y2="145" class="net_20 width_1" style="stroke-width: 1"/><line x1="184" x2="184" y1="42" y2="47" class="net_81 width_1" style="stroke-width: 1"/><line x1="185" x2="185" y1="172" y2="185" class="net_30 width_1" style="stroke-width: 1"/><line x1="185" x2="258" y1="185" y2="185" class="net_30 width_1" style="stroke-width: 1"/><circle cx="185" cy="185" r="2" style="fill:#000" class="net_30 width_1"/><line x1="258" x2="258" y1="185" y2="195" class="net_30 width_1" style="stroke-width: 1"/><line x1="185" x2="185" y1="172" y2="195" class="net_30 width_1" style="stroke-width: 1"/><line x1="122" x2="122" y1="219" y2="224" class="net_70 width_1" style="stroke-width: 1"/><line x1="258" x2="258" y1="245" y2="250" class="net_71 width_1" style="stroke-width: 1"/><line x1="185" x2="185" y1="245" y2="250" class="net_72 width_1" style="stroke-width: 1"/><line x1="62" x2="52" y1="118" y2="118" class="net_1 width_1" style="stroke-width: 1"/><line x1="52" x2="52" y1="118" y2="118" class="net_1 width_1" style="stroke-width: 1"/><line x1="52" x2="42" y1="118" y2="118" class="net_1 width_1" style="stroke-width: 1"/><line x1="244" x2="254" y1="118" y2="118" class="net_90 width_1" style="stroke-width: 1"/><line x1="254" x2="254" y1="118" y2="118" class="net_90 width_1" style="stroke-width: 1"/><line x1="254" x2="264" y1="118" y2="118" class="net_90 width_1" style="stroke-width: 1"/></svg>