<svg xmlns="http://www.w3.org/2000/svg" xmlns:xlink="http://www.w3.org/1999/xlink" xmlns:s="https://github.com/nturley/netlistsvg" width="380" height="338"><style>svg {
  stroke: #000;
  fill: none;
}
text {
  fill: #000;
  stroke: none;
  font-size: 10px;
  font-weight: bold;
  font-family: "Courier New", monospace;
}
.nodelabel {
  text-anchor: middle;
}
.inputPortLabel {
  text-anchor: end;
}
.splitjoinBody {
  fill: #000;
}
.symbol {
  stroke-linejoin: round;
  stroke-linecap: round;
  stroke-width: 2;
}
.detail {
  stroke-linejoin: round;
  stroke-linecap: round;
  fill: #000;
}</style><g s:type="diode_v" s:width="20" s:height="50" transform="translate(42,112)" id="cell_D1"><s:alias val="d_v"/><text x="25" y="25" s:attribute="ref" class="cell_D1">D1</text><path d="M0,15 H20 L10,35 Z M0,35 H20" class="symbol cell_D1"/><path d="M10,0 V15 M10,35 V50" class="connect cell_D1"/><g s:x="10" s:y="0" s:pid="+" s:position="top"/><g s:x="10" s:y="50" s:pid="-" s:position="bottom"/></g><g s:type="diode_v" s:width="20" s:height="50" transform="translate(42,22)" id="cell_D2"><s:alias val="d_v"/><text x="25" y="25" s:attribute="ref" class="cell_D2">D2</text><path d="M0,15 H20 L10,35 Z M0,35 H20" class="symbol cell_D2"/><path d="M10,0 V15 M10,35 V50" class="connect cell_D2"/><g s:x="10" s:y="0" s:pid="+" s:position="top"/><g s:x="10" s:y="50" s:pid="-" s:position="bottom"/></g><g s:type="diode_v" s:width="20" s:height="50" transform="translate(42,256)" id="cell_D3"><s:alias val="d_v"/><text x="25" y="25" s:attribute="ref" class="cell_D3">D3</text><path d="M0,15 H20 L10,35 Z M0,35 H20" class="symbol cell_D3"/><path d="M10,0 V15 M10,35 V50" class="connect cell_D3"/><g s:x="10" s:y="0" s:pid="+" s:position="top"/><g s:x="10" s:y="50" s:pid="-" s:position="bottom"/></g><g s:type="diode_v" s:width="20" s:height="50" transform="translate(180,256)" id="cell_D4"><s:alias val="d_v"/><text x="25" y="25" s:attribute="ref" class="cell_D4">D4</text><path d="M0,15 H20 L10,35 Z M0,35 H20" class="symbol cell_D4"/><path d="M10,0 V15 M10,35 V50" class="connect cell_D4"/><g s:x="10" s:y="0" s:pid="+" s:position="top"/><g s:x="10" s:y="50" s:pid="-" s:position="bottom"/></g><g s:type="capacitor_v" s:width="30" s:height="50" transform="translate(82,53)" id="cell_C1"><s:alias val="c_v"/><text x="25" y="10" s:attribute="ref" class="cell_C1">C1</text><text x="25" y="45" s:attribute="value" class="cell_C1">1000uF</text><path d="M0,20 H30 M0,30 H30" class="symbol cell_C1"/><path d="M15,0 V20 M15,30 V50" class="connect cell_C1"/><g s:x="15" s:y="0" s:pid="A" s:position="top"/><g s:x="15" s:y="50" s:pid="B" s:position="bottom"/></g><g s:type="generic" s:width="30" s:height="40" transform="translate(75,208)" id="cell_REG"><text x="15" y="-20" class="nodelabel cell_REG" s:attribute="ref">generic</text><text class="nodelabel cell_REG" x="15" y="-5" s:attribute="value">7805</text><rect width="30" height="40" x="0" y="0" s:generic="body" class="cell_REG"/><g transform="translate(0,10)" s:x="0" s:y="10" s:pid="in0" s:position="left" id="port_REG~IN"><text x="-3" y="-4" class="inputPortLabel cell_REG">IN</text></g><g transform="translate(30,10)" s:x="30" s:y="10" s:pid="out0" s:position="right" id="port_REG~OUT"><text x="5" y="-4" class="cell_REG">OUT</text></g><g transform="translate(30,30)" s:x="30" s:y="10" s:pid="out0" s:position="right" id="port_REG~GND"><text x="5" y="-4" class="cell_REG">GND</text></g></g><g s:type="capacitor_v" s:width="30" s:height="50" transform="translate(297,53)" id="cell_C2"><s:alias val="c_v"/><text x="25" y="10" s:attribute="ref" class="cell_C2">C2</text><text x="25" y="45" s:attribute="value" class="cell_C2">10uF</text><path d="M0,20 H30 M0,30 H30" class="symbol cell_C2"/><path d="M15,0 V20 M15,30 V50" class="connect cell_C2"/><g s:x="15" s:y="0" s:pid="A" s:position="top"/><g s:x="15" s:y="50" s:pid="B" s:position="bottom"/></g><g s:type="resistor_v" s:width="10" s:height="50" transform="translate(332,238.5)" id="cell_R_load"><s:alias val="r_v"/><text x="15" y="15" s:attribute="ref" class="cell_R_load">R_load</text><text x="15" y="30" s:attribute="value" class="cell_R_load">100R</text><path d="M0,10 V40 H10 V10 Z" class="symbol cell_R_load"/><path d="M5,0 V10 M5,40 V50" class="connect cell_R_load"/><g s:x="5" s:y="0" s:pid="A" s:position="top"/><g s:x="5" s:y="50" s:pid="B" s:position="bottom"/></g><g s:type="gnd" s:width="20" s:height="30" transform="translate(125,271)" id="cell_gnd1"><s:alias val="gnd"/><text x="30" y="20" class="nodelabel cell_gnd1" s:attribute="name"></text><path d="M0,0 H20 M3,5 H17 M7,10 H13 M10,0 V-15" class="cell_gnd1"/><g s:x="10" s:y="-15" s:pid="A" s:position="top"/></g><g s:type="resistor_h" s:width="50" s:height="10" transform="translate(156,23)" id="cell_vout_tap"><s:alias val="r_h"/><text class="nodelabel cell_vout_tap" x="25" y="-5" s:attribute="ref">vout_tap</text><text class="nodelabel cell_vout_tap" x="25" y="20" s:attribute="value"></text><path d="M10,0 H40 V10 H10 Z" class="symbol cell_vout_tap"/><path d="M0,5 H10 M40,5 H50" class="connect cell_vout_tap"/><g s:x="0" s:y="5" s:pid="A" s:position="left"/><g s:x="50" s:y="5" s:pid="B" s:position="right"/></g><g s:type="inputExt" s:width="30" s:height="20" transform="translate(12,87)" id="cell_AC_IN"><text x="15" y="-4" class="cell_AC_IN" s:attribute="ref">AC_IN</text><s:alias val="$_inputExt_"/><path d="M0,0 V20 H15 L30,10 15,0 Z" class="cell_AC_IN"/><g s:x="30" s:y="10" s:pid="Y" s:position="right"/></g><g s:type="outputExt" s:width="30" s:height="20" transform="translate(226,63)" id="cell_DC_OUT"><text x="15" y="-4" class="cell_DC_OUT" s:attribute="ref">DC_OUT</text><s:alias val="$_outputExt_"/><path d="M30,0 V20 H15 L0,10 15,0 Z" class="cell_DC_OUT"/><g s:x="0" s:y="10" s:pid="A" s:position="left"/></g><line x1="52" x2="52" y1="72" y2="97" class="net_1 width_1" style="stroke-width: 1"/><circle cx="52" cy="97" r="2" style="fill:#000" class="net_1 width_1"/><line x1="52" x2="42" y1="97" y2="97" class="net_1 width_1" style="stroke-width: 1"/><line x1="42" x2="52" y1="97" y2="97" class="net_1 width_1" style="stroke-width: 1"/><circle cx="52" cy="97" r="2" style="fill:#000" class="net_1 width_1"/><line x1="52" x2="52" y1="97" y2="112" class="net_1 width_1" style="stroke-width: 1"/><line x1="97" x2="97" y1="103" y2="113" class="net_20 width_1" style="stroke-width: 1"/><line x1="97" x2="135" y1="113" y2="113" class="net_20 width_1" style="stroke-width: 1"/><line x1="135" x2="135" y1="113" y2="238.5" class="net_20 width_1" style="stroke-width: 1"/><circle cx="135" cy="113" r="2" style="fill:#000" class="net_20 width_1"/><circle cx="135" cy="238.5" r="2" style="fill:#000" class="net_20 width_1"/><line x1="135" x2="106" y1="238.5" y2="238.5" class="net_20 width_1" style="stroke-width: 1"/><line x1="312" x2="312" y1="103" y2="113" class="net_20 width_1" style="stroke-width: 1"/><line x1="312" x2="135" y1="113" y2="113" class="net_20 width_1" style="stroke-width: 1"/><line x1="135" x2="135" y1="113" y2="238.5" class="net_20 width_1" style="stroke-width: 1"/><circle cx="135" cy="238.5" r="2" style="fill:#000" class="net_20 width_1"/><line x1="135" x2="106" y1="238.5" y2="238.5" class="net_20 width_1" style="stroke-width: 1"/><line x1="337" x2="337" y1="288.5" y2="326" class="net_20 width_1" style="stroke-width: 1"/><line x1="337" x2="210" y1="326" y2="326" class="net_20 width_1" style="stroke-width: 1"/><line x1="210" x2="210" y1="326" y2="246" class="net_20 width_1" style="stroke-width: 1"/><line x1="210" x2="135" y1="246" y2="246" class="net_20 width_1" style="stroke-width: 1"/><line x1="135" x2="135" y1="246" y2="238.5" class="net_20 width_1" style="stroke-width: 1"/><circle cx="135" cy="238.5" r="2" style="fill:#000" class="net_20 width_1"/><line x1="135" x2="106" y1="238.5" y2="238.5" class="net_20 width_1" style="stroke-width: 1"/><line x1="106" x2="135" y1="238.5" y2="238.5" class="net_20 width_1" style="stroke-width: 1"/><line x1="135" x2="135" y1="238.5" y2="12" class="net_20 width_1" style="stroke-width: 1"/><line x1="135" x2="52" y1="12" y2="12" class="net_20 width_1" style="stroke-width: 1"/><circle cx="135" cy="238.5" r="2" style="fill:#000" class="net_20 width_1"/><line x1="52" x2="52" y1="12" y2="22" class="net_20 width_1" style="stroke-width: 1"/><line x1="106" x2="135" y1="238.5" y2="238.5" class="net_20 width_1" style="stroke-width: 1"/><line x1="135" x2="135" y1="238.5" y2="246" class="net_20 width_1" style="stroke-width: 1"/><line x1="135" x2="190" y1="246" y2="246" class="net_20 width_1" style="stroke-width: 1"/><circle cx="135" cy="246" r="2" style="fill:#000" class="net_20 width_1"/><circle cx="190" cy="246" r="2" style="fill:#000" class="net_20 width_1"/><circle cx="135" cy="238.5" r="2" style="fill:#000" class="net_20 width_1"/><line x1="190" x2="190" y1="246" y2="256" class="net_20 width_1" style="stroke-width: 1"/><line x1="106" x2="135" y1="238.5" y2="238.5" class="net_20 width_1" style="stroke-width: 1"/><circle cx="135" cy="238.5" r="2" style="fill:#000" class="net_20 width_1"/><line x1="135" x2="135" y1="238.5" y2="256" class="net_20 width_1" style="stroke-width: 1"/><line x1="52" x2="52" y1="162" y2="218.5" class="net_10 width_1" style="stroke-width: 1"/><circle cx="52" cy="218.5" r="2" style="fill:#000" class="net_10 width_1"/><line x1="52" x2="75" y1="218.5" y2="218.5" class="net_10 width_1" style="stroke-width: 1"/><line x1="75" x2="52" y1="218.5" y2="218.5" class="net_10 width_1" style="stroke-width: 1"/><circle cx="52" cy="218.5" r="2" style="fill:#000" class="net_10 width_1"/><line x1="52" x2="52" y1="218.5" y2="256" class="net_10 width_1" style="stroke-width: 1"/><line x1="75" x2="52" y1="218.5" y2="218.5" class="net_10 width_1" style="stroke-width: 1"/><line x1="52" x2="52" y1="218.5" y2="172" class="net_10 width_1" style="stroke-width: 1"/><line x1="52" x2="72" y1="172" y2="172" class="net_10 width_1" style="stroke-width: 1"/><line x1="72" x2="72" y1="172" y2="43" class="net_10 width_1" style="stroke-width: 1"/><line x1="72" x2="97" y1="43" y2="43" class="net_10 width_1" style="stroke-width: 1"/><circle cx="52" cy="172" r="2" style="fill:#000" class="net_10 width_1"/><circle cx="52" cy="218.5" r="2" style="fill:#000" class="net_10 width_1"/><line x1="97" x2="97" y1="43" y2="53" class="net_10 width_1" style="stroke-width: 1"/><line x1="106" x2="337" y1="218.5" y2="218.5" class="net_50 width_1" style="stroke-width: 1"/><line x1="337" x2="337" y1="218.5" y2="43" class="net_50 width_1" style="stroke-width: 1"/><line x1="337" x2="312" y1="43" y2="43" class="net_50 width_1" style="stroke-width: 1"/><circle cx="337" cy="218.5" r="2" style="fill:#000" class="net_50 width_1"/><line x1="312" x2="312" y1="43" y2="53" class="net_50 width_1" style="stroke-width: 1"/><line x1="106" x2="337" y1="218.5" y2="218.5" class="net_50 width_1" style="stroke-width: 1"/><circle cx="337" cy="218.5" r="2" style="fill:#000" class="net_50 width_1"/><line x1="337" x2="337" y1="218.5" y2="238.5" class="net_50 width_1" style="stroke-width: 1"/><line x1="156" x2="146" y1="28" y2="28" class="net_50 width_1" style="stroke-width: 1"/><line x1="146" x2="146" y1="28" y2="43" class="net_50 width_1" style="stroke-width: 1"/><line x1="146" x2="312" y1="43" y2="43" class="net_50 width_1" style="stroke-width: 1"/><circle cx="312" cy="43" r="2" style="fill:#000" class="net_50 width_1"/><line x1="312" x2="312" y1="43" y2="53" class="net_50 width_1" style="stroke-width: 1"/><line x1="156" x2="146" y1="28" y2="28" class="net_50 width_1" style="stroke-width: 1"/><line x1="146" x2="146" y1="28" y2="43" class="net_50 width_1" style="stroke-width: 1"/><line x1="146" x2="337" y1="43" y2="43" class="net_50 width_1" style="stroke-width: 1"/><line x1="337" x2="337" y1="43" y2="208.5" class="net_50 width_1" style="stroke-width: 1"/><line x1="337" x2="347" y1="208.5" y2="208.5" class="net_50 width_1" style="stroke-width: 1"/><line x1="347" x2="347" y1="208.5" y2="228.5" class="net_50 width_1" style="stroke-width: 1"/><line x1="347" x2="337" y1="228.5" y2="228.5" class="net_50 width_1" style="stroke-width: 1"/><circle cx="337" cy="208.5" r="2" style="fill:#000" class="net_50 width_1"/><circle cx="337" cy="228.5" r="2" style="fill:#000" class="net_50 width_1"/><line x1="337" x2="337" y1="228.5" y2="238.5" class="net_50 width_1" style="stroke-width: 1"/><line x1="52" x2="52" y1="306" y2="316" class="net_30 width_1" style="stroke-width: 1"/><line x1="190" x2="190" y1="306" y2="316" class="net_30 width_1" style="stroke-width: 1"/><line x1="190" x2="52" y1="316" y2="316" class="net_30 width_1" style="stroke-width: 1"/><line x1="206" x2="216" y1="28" y2="28" class="net_60 width_1" style="stroke-width: 1"/><line x1="216" x2="216" y1="28" y2="73" class="net_60 width_1" style="stroke-width: 1"/><line x1="216" x2="226" y1="73" y2="73" class="net_60 width_1" style="stroke-width: 1"/></svg>